<mxfile host="65bd71144e">
    <diagram id="HIP3nbAZw_EuaXWnEj3U" name="Page-1">
        <mxGraphModel dx="1726" dy="666" grid="1" gridSize="10" guides="1" tooltips="1" connect="1" arrows="1" fold="1" page="1" pageScale="1" pageWidth="850" pageHeight="1100" math="0" shadow="0">
            <root>
                <mxCell id="0"/>
                <mxCell id="1" parent="0"/>
                <mxCell id="6" style="edgeStyle=none;html=1;" edge="1" parent="1" source="2" target="5">
                    <mxGeometry relative="1" as="geometry"/>
                </mxCell>
                <mxCell id="2" value="Start" style="strokeWidth=2;html=1;shape=mxgraph.flowchart.terminator;whiteSpace=wrap;" parent="1" vertex="1">
                    <mxGeometry x="230" y="310" width="100" height="60" as="geometry"/>
                </mxCell>
                <mxCell id="3" value="Stop" style="strokeWidth=2;html=1;shape=mxgraph.flowchart.terminator;whiteSpace=wrap;" parent="1" vertex="1">
                    <mxGeometry x="230" y="1230" width="100" height="60" as="geometry"/>
                </mxCell>
                <mxCell id="9" style="edgeStyle=none;html=1;" edge="1" parent="1" source="5" target="8">
                    <mxGeometry relative="1" as="geometry"/>
                </mxCell>
                <mxCell id="11" style="edgeStyle=none;html=1;" edge="1" parent="1" source="5" target="10">
                    <mxGeometry relative="1" as="geometry"/>
                </mxCell>
                <mxCell id="5" value="If&lt;br&gt;counter === &lt;br&gt;null" style="strokeWidth=2;html=1;shape=mxgraph.flowchart.decision;whiteSpace=wrap;" vertex="1" parent="1">
                    <mxGeometry x="230" y="420" width="100" height="100" as="geometry"/>
                </mxCell>
                <mxCell id="12" style="edgeStyle=none;html=1;" edge="1" parent="1" source="8">
                    <mxGeometry relative="1" as="geometry">
                        <mxPoint x="280" y="550" as="targetPoint"/>
                    </mxGeometry>
                </mxCell>
                <mxCell id="8" value="Counter = 0" style="rounded=1;whiteSpace=wrap;html=1;absoluteArcSize=1;arcSize=14;strokeWidth=2;" vertex="1" parent="1">
                    <mxGeometry x="375" y="420" width="100" height="100" as="geometry"/>
                </mxCell>
                <mxCell id="14" style="edgeStyle=none;html=1;" edge="1" parent="1" source="10" target="13">
                    <mxGeometry relative="1" as="geometry"/>
                </mxCell>
                <mxCell id="10" value="Clicks = counter" style="rounded=1;whiteSpace=wrap;html=1;absoluteArcSize=1;arcSize=14;strokeWidth=2;" vertex="1" parent="1">
                    <mxGeometry x="230" y="600" width="100" height="100" as="geometry"/>
                </mxCell>
                <mxCell id="17" style="edgeStyle=none;html=1;" edge="1" parent="1" source="13" target="16">
                    <mxGeometry relative="1" as="geometry"/>
                </mxCell>
                <mxCell id="13" value="Print clicks" style="shape=parallelogram;html=1;strokeWidth=2;perimeter=parallelogramPerimeter;whiteSpace=wrap;rounded=1;arcSize=12;size=0.23;" vertex="1" parent="1">
                    <mxGeometry x="230" y="730" width="100" height="60" as="geometry"/>
                </mxCell>
                <mxCell id="15" value="True" style="text;html=1;strokeColor=none;fillColor=none;align=center;verticalAlign=middle;whiteSpace=wrap;rounded=0;" vertex="1" parent="1">
                    <mxGeometry x="310" y="430" width="60" height="30" as="geometry"/>
                </mxCell>
                <mxCell id="19" style="edgeStyle=none;html=1;" edge="1" parent="1" source="16" target="18">
                    <mxGeometry relative="1" as="geometry"/>
                </mxCell>
                <mxCell id="16" value="(When clicked)&lt;br&gt;clicks = counter + 1" style="rounded=1;whiteSpace=wrap;html=1;absoluteArcSize=1;arcSize=14;strokeWidth=2;" vertex="1" parent="1">
                    <mxGeometry x="230" y="820" width="100" height="100" as="geometry"/>
                </mxCell>
                <mxCell id="21" style="edgeStyle=none;html=1;" edge="1" parent="1" source="18" target="20">
                    <mxGeometry relative="1" as="geometry"/>
                </mxCell>
                <mxCell id="18" value="counter = clicks" style="rounded=1;whiteSpace=wrap;html=1;absoluteArcSize=1;arcSize=14;strokeWidth=2;" vertex="1" parent="1">
                    <mxGeometry x="230" y="970" width="100" height="100" as="geometry"/>
                </mxCell>
                <mxCell id="26" style="edgeStyle=none;html=1;" edge="1" parent="1" source="20" target="3">
                    <mxGeometry relative="1" as="geometry"/>
                </mxCell>
                <mxCell id="20" value="print clicks" style="shape=parallelogram;html=1;strokeWidth=2;perimeter=parallelogramPerimeter;whiteSpace=wrap;rounded=1;arcSize=12;size=0.23;" vertex="1" parent="1">
                    <mxGeometry x="230" y="1120" width="100" height="60" as="geometry"/>
                </mxCell>
            </root>
        </mxGraphModel>
    </diagram>
</mxfile>